<?xml version="1.0" encoding="UTF-8"?>
<svg id="Layer_2" data-name="Layer 2" xmlns="http://www.w3.org/2000/svg" viewBox="0 0 411.64 445.11">
  <defs>
    <style>
      .cls-1 {
        fill: none;
      }

      .cls-2 {
        fill: #fff;
      }
    </style>
  </defs>
  <g id="Layer_1-2" data-name="Layer 1">
    <g>
      <path d="M190.15,170.33c22.44-2.36,43.13,1.83,63.44,11.01,22.77,10.3,40.19,29.31,64.78,36.22,18.42,5.18,41.44,6.62,60.55,5.53,5.31-.3,28.42-5.05,30.97-2.05,2.23,2.63,1.8,27.43,1.53,32.55-5.82,109.95-107.19,195.29-215.57,191.39C86.85,441.06-6.33,344.81.34,234.51c.22-3.68.88-14.45,4.04-15.96,25.06-1.72,50.38,1.47,75.21-2.79,41.68-7.14,67.94-40.95,110.57-45.43ZM191.37,188.06c-18.02,1.59-37.16,8.23-52.31,18.18-4.78,3.14-15.08,9.59-2.22,8.8,12.2-.75,41.64-17.28,52.53-24.52,1.15-.76,2.59.25,1.99-2.47ZM38.39,328.05c1.51.41,1.66-.4,2.5-.98,5.22-3.6,10.9-10.42,16.58-14.42,56.95-40.16,81.52,16.64,133.92,3.92,25.96-6.3,44.05-29.07,54.85-52.15,8.78-18.76,26.55-62.61-6.62-67.1-38.86-5.26-50.48,12.65-81.56,24.92-18.9,7.46-34.89,2.59-54.06,4.94-17.63,2.16-40.06,6.68-57.66,10.34-9.83,2.04-19.54,4.59-28.98,8.04-2.01,1.56-.05,3.92.01,6.01.07,2.38-.8,13.47,1.5,13.47,29.67-18.64,65.47-23.71,99.96-26.02,19.96-1.34,32.27,2.06,51.56-7.44,22.48-11.07,30.18-21.82,58.82-14.86,16.32,3.97,14.7,12.83,11.7,27.38-8.88,43-50.07,75.57-93.89,56.82-14.63-6.26-22-17.55-39.11-18.89-22.11-1.73-42.97,5.07-61.45,16.62-2.93,1.83-13.55,8.81-15.18,10.88-2.6,3.31,6.64,14.38,7.11,18.54ZM300.38,228.06c-3.97,1.11-25.07-13.1-26-12-1.32,21.89-10.44,42.75-20.83,61.67-13.39,24.39-23.44,35.8-49.92,46.08-36.29,14.09-81.52,20.1-111.72,46.28-2.07,1.79-7.24,6.48-8.59,8.44-.72,1.05-1.25,1.08-.5,2.52,1.72,3.33,8.67,6.72,11.09,9.99l1.41-.03c4.18-5.33,10.58-11.07,16.16-15.36,31.59-24.29,62.94-25.07,98.42-36.58,37.97-12.32,46.67-47.42,66.07-77.93,7.25-11.4,16.41-20.38,23.43-30.57.58-.85,1.39-.99.99-2.51ZM25.39,297.05c26.56-20.32,68.27-34.52,101.2-23.71,11.78,3.87,19.05,13.94,30.81,18.19,22.57,8.16,48.41-4.6,61.39-23.57,5.77-8.44,18.68-35.17,5.32-41.14-18.01-8.06-43.48,16.02-61.7,19.77-17.09,3.52-36.74,2.63-54.39,4.61-30.48,3.41-60.82,10.71-87.53,25.98l4.9,19.88ZM344.38,240.06c-8.46-.22-18.53-4.7-26.67-4.94-1.89-.06-2.2-.11-3.88.88-1.84,1.08-10.97,10.76-12.96,13.04-19.27,22.08-28.85,50.36-46.07,72.93-23.53,30.84-55.58,29.95-89.2,40.8-21.06,6.79-44.59,17.8-58.21,35.75,3.39,2.37,12.31,9.48,16.28,8.39.99-.27,12.53-11.58,15.39-13.69,27.9-20.56,53.67-20.11,83.86-31.14,50.24-18.35,51.43-69.99,88.46-101.54,10.82-9.22,19.62-12.21,31.59-18.4,1.03-.53,1.9.53,1.43-2.08ZM394.37,240.05c-31.57,6.61-62.48,15.17-84.51,39.99-26.09,29.4-29.78,67.16-67.47,86.53-34.16,17.56-78.12,15.5-106,45.98,0,1.27,15.52,6.76,17.27,6.34,1.33-.32,15.35-11.3,18.79-13.26,25.06-14.3,56.94-13.23,81.24-28.76,41.89-26.75,39.66-87.87,92.16-106.84,15.81-5.72,32.03-3.56,47.37-11.13l1.15-18.85ZM391.38,275.06c-15.09,3.13-31.9,1.98-46,8.49-47.33,21.85-44.68,94.17-105.97,114.03-21.58,6.99-47.7,7.53-65.76,23.18-.7.61-1.89-.04-1.27,2.28,5.82.75,11.05,3.1,17.03,1.54,2.61-.68,6.42-3.53,9.29-4.7,34.58-14.02,72.13-17.98,95.49-50.51,18.53-25.81,24.46-61.94,57.97-74.03,11.87-4.28,21.97-2.96,34.28-3.72l4.94-16.55ZM381.38,306.06c-18.94-4.15-37.22,3.87-48.43,19.06-19.19,26.01-22.6,53.93-51.84,74.16-19.07,13.19-37.36,15.88-57.5,24.5-1.23.53-2.95.53-3.23,2.26,28.67-3.33,66.04-9.73,85.51-32.98,21.61-25.81,28.51-73.72,70.36-73.14l5.13-13.86ZM150.37,327.06c-25.18-8.63-45.53-24.29-72.98-11.5-4.64,2.16-31.17,21.01-30.85,24.8.14,1.64,5.69,10.01,7.27,9.65,10.95-10.43,23.53-21.39,38.35-25.68,6.71-1.94,14.88-4.26,20.77.71,4.37,6.86-14.88,9.75-18.82,11.25-6.98,2.65-14.37,7.16-20.21,11.79-1.8,1.43-12.48,11.31-12.39,12.3,2.49,4.58,5.78,8.84,10.37,11.49,14.23-15.84,30.9-26.27,50.52-34.29,8.51-3.48,17.68-5.6,25.97-9.05.95-.4,2.29-.1,1.99-1.47ZM368.37,333.06c-19.73,5.87-29.1,27.63-36.99,44.99,14.54-12.42,28.96-27.43,36.99-44.99Z"/>
      <path d="M213.11.23c4.12-.86,4.79.8,7.24,3.36l67.53,93.45,24.94-26.03c1.76-1.42,4.37-1.46,6.13-.02,26.16,36.88,52.57,73.63,81.88,108.11,1.32,1.55,2.55,5.18.6,6.51l-103.49.38c-9.17-4.32-16.95-11.15-25.89-16.11-52.38-29.03-113.06-18.87-160.22,15.12l-107.43-.47c-1.18-.94-3.06-2.4-3.06-3.98,0-1.81,19.59-21.2,22.55-24.48,28.79-31.98,55.84-65.46,83.99-98.01,2.58-2.33,4.67-2.52,7.48-.48,3.47,3.32,21.56,27.89,24.39,27.4L213.11.23ZM274.37,117.05l-62.49-82.98-49.5,69.49c2.08.27,5.38-1.7,7.35-2.65,8.06-3.88,15.8-8.63,24.2-11.8l28.44,22.95-5.87-34.41,3.35-1.62,54.52,41.03ZM79.39,142.05l35.64-16.74,28.77,9.71,1.58-2.45-32.06-34.95-3.3-1.43-30.62,45.86ZM341.37,154.05c.33-1.52-.33-2.35-.92-3.57-3.5-7.13-20.19-31.03-25.66-37.34-1.1-1.27-2.46-3.82-4.43-2.66l-14.98,25.56,45.99,18.01Z"/>
      <path class="cls-1" d="M38.39,328.05c-.46-4.15-9.71-15.23-7.11-18.54,1.63-2.07,12.25-9.05,15.18-10.88,18.48-11.55,39.34-18.35,61.45-16.62,17.11,1.34,24.48,12.63,39.11,18.89,43.82,18.75,85.02-13.82,93.89-56.82,3-14.55,4.63-23.41-11.7-27.38-28.64-6.96-36.34,3.8-58.82,14.86-19.29,9.5-31.6,6.1-51.56,7.44-34.49,2.31-70.29,7.38-99.96,26.02-2.31,0-1.44-11.09-1.5-13.47-.06-2.09-2.02-4.45-.01-6.01,9.44-3.44,19.15-5.99,28.98-8.04,17.6-3.66,40.03-8.18,57.66-10.34,19.16-2.35,35.16,2.52,54.06-4.94,31.08-12.27,42.7-30.19,81.56-24.92,33.16,4.49,15.4,48.34,6.62,67.1-10.8,23.08-28.89,45.85-54.85,52.15-52.4,12.72-76.97-44.08-133.92-3.92-5.67,4-11.36,10.82-16.58,14.42-.84.58-.99,1.39-2.5.98Z"/>
      <path class="cls-1" d="M25.39,297.05l-4.9-19.88c26.71-15.27,57.05-22.57,87.53-25.98,17.66-1.98,37.3-1.09,54.39-4.61,18.22-3.75,43.69-27.83,61.7-19.77,13.35,5.97.45,32.71-5.32,41.14-12.97,18.97-38.82,31.73-61.39,23.57-11.76-4.25-19.02-14.32-30.81-18.19-32.93-10.81-74.64,3.39-101.2,23.71ZM152.72,278.71c3.54,3.69,14,7.15,19.14,7.39,18.48.87,41.97-15.27,43.51-34.56,1.95-24.47-25.73-4.59-36,0-10.05,4.48-31.47,7.61-28.93,22.96.22,1.33,1.35,3.24,2.29,4.22Z"/>
      <path class="cls-1" d="M394.37,240.05l-1.15,18.85c-15.33,7.57-31.55,5.42-47.37,11.13-52.5,18.97-50.27,80.09-92.16,106.84-24.31,15.52-56.19,14.45-81.24,28.76-3.44,1.96-17.46,12.95-18.79,13.26-1.75.41-17.26-5.07-17.27-6.34,27.88-30.48,71.84-28.42,106-45.98,37.69-19.37,41.38-57.14,67.47-86.53,22.03-24.82,52.94-33.38,84.51-39.99Z"/>
      <path class="cls-1" d="M300.38,228.06c.41,1.52-.41,1.66-.99,2.51-7.02,10.19-16.18,19.17-23.43,30.57-19.4,30.51-28.1,65.61-66.07,77.93-35.48,11.51-66.83,12.29-98.42,36.58-5.58,4.29-11.98,10.03-16.16,15.36l-1.41.03c-2.42-3.27-9.36-6.66-11.09-9.99-.75-1.45-.22-1.47.5-2.52,1.35-1.96,6.52-6.65,8.59-8.44,30.2-26.19,75.43-32.2,111.72-46.28,26.48-10.28,36.53-21.69,49.92-46.08,10.39-18.92,19.51-39.78,20.83-61.67.92-1.1,22.02,13.11,26,12Z"/>
      <path class="cls-1" d="M344.38,240.06c.47,2.62-.39,1.55-1.43,2.08-11.97,6.19-20.77,9.18-31.59,18.4-37.03,31.55-38.22,83.18-88.46,101.54-30.19,11.03-55.96,10.59-83.86,31.14-2.86,2.11-14.4,13.41-15.39,13.69-3.96,1.09-12.89-6.02-16.28-8.39,13.62-17.96,37.15-28.96,58.21-35.75,33.62-10.85,65.67-9.96,89.2-40.8,17.22-22.57,26.8-50.85,46.07-72.93,1.99-2.28,11.12-11.96,12.96-13.04,1.69-.99,2-.94,3.88-.88,8.15.24,18.22,4.72,26.67,4.94Z"/>
      <path class="cls-1" d="M391.38,275.06l-4.94,16.55c-12.31.76-22.41-.56-34.28,3.72-33.51,12.09-39.44,48.22-57.97,74.03-23.35,32.53-60.91,36.49-95.49,50.51-2.87,1.17-6.68,4.02-9.29,4.7-5.98,1.56-11.21-.79-17.03-1.54-.62-2.32.57-1.67,1.27-2.28,18.06-15.65,44.18-16.19,65.76-23.18,61.29-19.86,58.64-92.18,105.97-114.03,14.1-6.51,30.91-5.35,46-8.49Z"/>
      <path class="cls-1" d="M150.37,327.06c.3,1.37-1.04,1.08-1.99,1.47-8.29,3.44-17.46,5.57-25.97,9.05-19.62,8.02-36.29,18.45-50.52,34.29-4.59-2.65-7.88-6.91-10.37-11.49-.09-.99,10.59-10.87,12.39-12.3,5.83-4.63,13.23-9.14,20.21-11.79,3.93-1.49,23.18-4.39,18.82-11.25-5.89-4.97-14.07-2.65-20.77-.71-14.82,4.3-27.41,15.25-38.35,25.68-1.58.35-7.13-8.02-7.27-9.65-.32-3.78,26.21-22.64,30.85-24.8,27.45-12.79,47.8,2.86,72.98,11.5Z"/>
      <path class="cls-1" d="M381.38,306.06l-5.13,13.86c-41.84-.57-48.75,47.34-70.36,73.14-19.47,23.25-56.84,29.65-85.51,32.98.28-1.73,1.99-1.74,3.23-2.26,20.14-8.62,38.43-11.3,57.5-24.5,29.24-20.23,32.65-48.15,51.84-74.16,11.21-15.19,29.49-23.22,48.43-19.06Z"/>
      <path class="cls-1" d="M191.37,188.06c.6,2.72-.84,1.7-1.99,2.47-10.9,7.23-40.34,23.77-52.53,24.52-12.86.79-2.57-5.66,2.22-8.8,15.15-9.96,34.29-16.6,52.31-18.18Z"/>
      <path class="cls-1" d="M368.37,333.06c-8.02,17.57-22.44,32.58-36.99,44.99,7.89-17.36,17.26-39.13,36.99-44.99Z"/>
      <path class="cls-2" d="M274.37,117.05l-54.52-41.03-3.35,1.62,5.87,34.41-28.44-22.95c-8.4,3.18-16.14,7.93-24.2,11.8-1.97.95-5.27,2.93-7.35,2.65l49.5-69.49,62.49,82.98Z"/>
      <polygon class="cls-2" points="79.39 142.05 110.01 96.19 113.31 97.62 145.37 132.57 143.8 135.02 115.03 125.31 79.39 142.05"/>
      <path class="cls-2" d="M341.37,154.05l-45.99-18.01,14.98-25.56c1.97-1.16,3.34,1.39,4.43,2.66,5.46,6.31,22.16,30.21,25.66,37.34.59,1.21,1.26,2.05.92,3.57Z"/>
      <path d="M152.72,278.71c-.94-.98-2.07-2.89-2.29-4.22-2.54-15.34,18.88-18.48,28.93-22.96,10.27-4.58,37.95-24.47,36,0-1.54,19.29-25.03,35.42-43.51,34.56-5.14-.24-15.6-3.7-19.14-7.39ZM203.28,252.14c-2.5-1.78-19.6,9.05-23.64,10.67-3.64,1.46-14.49,3.56-16.26,4.74-2.19,1.48.48,4.92,2.05,5.94,6.46,4.2,22.57-1.14,28.44-5.45,2.73-2,14.05-12.6,9.4-15.91Z"/>
      <path class="cls-1" d="M203.28,252.14c4.65,3.3-6.67,13.9-9.4,15.91-5.87,4.31-21.98,9.64-28.44,5.45-1.57-1.02-4.24-4.46-2.05-5.94,1.76-1.19,12.62-3.28,16.26-4.74,4.04-1.62,21.13-12.45,23.64-10.67Z"/>
    </g>
  </g>
</svg>